<?xml version="1.0" encoding="UTF-8" standalone="no"?>
<!DOCTYPE svg PUBLIC "-//W3C//DTD SVG 1.1//EN" "http://www.w3.org/Graphics/SVG/1.1/DTD/svg11.dtd">
<svg alt="Paperboard with checklist pictogram - Samuel holmes dot tech" width="100%" height="100%" viewBox="0 0 1080 1080" version="1.1" xmlns="http://www.w3.org/2000/svg" xmlnsXlink="http://www.w3.org/1999/xlink" xmlSpace="preserve" style="fill-rule:evenodd;clip-rule:evenodd;stroke-linecap:round;stroke-linejoin:round;stroke-miterlimit:1.5;">
    <title>Paperboard with checklist pictogram - Samuel holmes dot tech</title>
    <g>
        <path class="LogoLine" d="M783.28,322.075C846.407,393.458 884.75,487.286 884.75,590C884.75,813.388 703.388,994.75 480,994.75C256.612,994.75 75.25,813.388 75.25,590C75.25,366.612 256.612,185.25 480,185.25C582.714,185.25 676.542,223.593 747.925,286.72L691.234,343.411C634.417,294.691 560.62,265.25 480,265.25C300.766,265.25 155.25,410.766 155.25,590C155.25,769.234 300.766,914.75 480,914.75C659.234,914.75 804.75,769.234 804.75,590C804.75,509.38 775.309,435.583 726.589,378.766L783.28,322.075ZM691.204,414.152C730.951,461.829 754.872,523.143 754.872,590C754.872,741.706 631.706,864.872 480,864.872C328.294,864.872 205.128,741.706 205.128,590C205.128,438.294 328.294,315.128 480,315.128C546.857,315.128 608.171,339.049 655.848,378.796L598.96,435.684C566.042,410.261 524.774,395.128 480,395.128C372.447,395.128 285.128,482.447 285.128,590C285.128,697.553 372.447,784.872 480,784.872C587.553,784.872 674.872,697.553 674.872,590C674.872,545.226 659.739,503.958 634.316,471.04L691.204,414.152ZM589.158,516.197C603.433,537.255 611.777,562.661 611.777,590C611.777,662.729 552.729,721.777 480,721.777C407.271,721.777 348.223,662.729 348.223,590C348.223,517.271 407.271,458.223 480,458.223C507.339,458.223 532.745,466.567 553.803,480.842L494.391,540.253C489.82,538.931 484.992,538.223 480,538.223C451.424,538.223 428.223,561.424 428.223,590C428.223,618.576 451.424,641.777 480,641.777C508.576,641.777 531.777,618.576 531.777,590C531.777,585.008 531.069,580.18 529.747,575.609L589.158,516.197Z"/>
    </g>
    <g transform="matrix(0.815557,-0.815557,0.707107,0.707107,235.622,719.026)">
        <path class="LogoCircle" d="M228.926,81.566L725.213,81.566" style="fill:none;stroke-width:15.75px;"/>
    </g>
    <g transform="matrix(0.790609,0,0,0.814353,177.296,33.8175)">
        <g transform="matrix(-0.203915,-0.680521,0.716039,-0.214558,836.574,674.328)">
            <path class="LogoLine" d="M650.708,106.115L567.347,67.05L659.6,235.543L761.792,235.543L650.708,106.115Z"/>
        </g>
        <g transform="matrix(0.692519,0.226928,0.228063,-0.693009,398.797,221.466)">
            <path class="LogoLine" d="M650.708,106.115L568.535,65.534L657.771,235.564L761.792,235.543L650.708,106.115Z"/>
        </g>
    </g>
</svg>
