<?xml version="1.0" encoding="UTF-8" standalone="no"?>
<!DOCTYPE svg PUBLIC "-//W3C//DTD SVG 1.1//EN" "http://www.w3.org/Graphics/SVG/1.1/DTD/svg11.dtd">
<svg alt="Target with arrow in bullseye pictogram - Samuel holmes dot tech" width="100%" height="100%" viewBox="0 0 845 845" version="1.1" xmlns="http://www.w3.org/2000/svg" xmlnsXlink="http://www.w3.org/1999/xlink" xmlSpace="preserve" style="fill-rule:evenodd;clip-rule:evenodd;stroke-linejoin:round;stroke-miterlimit:2;">
    <title>Target with arrow in bullseye pictogram - Samuel holmes dot tech</title>
    <g id="Artboard1" transform="matrix(1,0,0,1,-273.975,-250.536)">
        <rect x="273.975" y="250.536" width="844.005" height="844.005" style="fill:none;"/>
        <g transform="matrix(1,0,0,1,39.5097,-23.6606)">
            <g transform="matrix(1,0,0,1,0.975064,0.536205)">
                <path class="LogoLine" d="M825.851,695.075L825.851,958.402C825.851,988.977 801.028,1013.8 770.453,1013.8L404.441,1013.8C373.866,1013.8 349.043,988.977 349.043,958.402L349.043,432.924C349.043,402.349 373.866,377.525 404.441,377.525L770.453,377.525C801.028,377.525 825.851,402.349 825.851,432.924L825.851,537.802L794.574,568.124L794.574,491.694C794.574,422.018 794.795,411.502 733.381,411.502L444.284,411.502C385.156,411.502 383.091,423.844 383.091,491.694L383.091,912.314C383.091,970.215 386.383,981.507 444.284,981.507L733.381,981.507C794.324,981.507 794.574,973.257 794.574,912.314L794.574,726.838L825.851,695.075ZM461.239,821.838L505.576,774.713L520.749,788.989L459.895,853.67L425.794,810.673L442.117,797.727L461.239,821.838ZM536.032,849.315L750.558,849.315L750.558,828.482L536.032,828.482L536.032,849.315ZM461.239,684.154L505.576,637.029L520.749,651.305L459.895,715.986L425.794,672.988L442.117,660.043L461.239,684.154ZM536.202,710.415L650,710.415L650,689.582L536.202,689.582L536.202,710.415ZM461.239,544.309L505.576,497.185L520.749,511.46L459.895,576.141L425.794,533.144L442.117,520.198L461.239,544.309ZM537.493,570.642L750.558,570.642L750.558,549.809L537.493,549.809L537.493,570.642Z"/>
            </g>
            <g transform="matrix(0.857129,0.871889,-0.871889,0.857129,610.834,-771.538)">
                <path class="LogoLine" d="M900.9,589.244L964.607,589.244L964.607,809.803L932.815,885.099L900.9,809.803L900.9,589.244ZM915.764,817.831L949.849,817.831L932.806,858.117L915.764,817.831ZM941.507,605.645L941.507,795.456C941.507,797.755 943.374,799.622 945.673,799.622C947.973,799.622 949.84,797.755 949.84,795.456L949.84,605.645C949.84,603.346 947.973,601.479 945.673,601.479C943.374,601.479 941.507,603.346 941.507,605.645ZM915.774,605.165L915.774,794.975C915.774,797.275 917.641,799.142 919.94,799.142C922.24,799.142 924.107,797.275 924.107,794.975L924.107,605.165C924.107,602.865 922.24,600.998 919.94,600.998C917.641,600.998 915.774,602.865 915.774,605.165Z"/>
                <g transform="matrix(1,0,0,1.0779,0,-41.914)">
                    <path class="LogoLine" d="M964.607,548.274C964.607,542.641 959.678,538.068 953.606,538.068L911.901,538.068C905.83,538.068 900.9,542.641 900.9,548.274L900.9,578.893L964.607,578.893L964.607,548.274Z"/>
                </g>
            </g>
        </g>
    </g>
</svg>
