<?xml version="1.0" encoding="UTF-8" standalone="no"?>
<!DOCTYPE svg PUBLIC "-//W3C//DTD SVG 1.1//EN" "http://www.w3.org/Graphics/SVG/1.1/DTD/svg11.dtd">
<svg alt="Handing keys from hand to hand pictogram - Samuel holmes dot tech" width="100%" height="100%" viewBox="0 0 1300 1300" version="1.1" xmlns="http://www.w3.org/2000/svg" xmlnsXlink="http://www.w3.org/1999/xlink" xmlSpace="preserve" style="fill-rule:evenodd;clip-rule:evenodd;stroke-linecap:round;">
    <title>Handing keys from hand to hand pictogram - Samuel holmes dot tech</title>
    <path class="LogoLine" d="M466.124,829.358C448.186,846.389 451.363,854.195 450.34,861.359C449.317,868.523 450.34,899.387 450.34,899.387C450.34,899.387 450.83,909.238 456.004,915.661C461.177,922.084 476.556,925.991 479.687,927.209C482.819,928.428 582.343,961.622 593.38,964.883C604.417,968.143 621.989,970.883 636.203,966.883C650.417,962.882 726.886,942.564 736.985,939.962C747.084,937.36 851.223,872.086 851.223,872.086C851.223,872.086 885.119,856.568 870.242,832.322C855.365,808.077 826.265,825.967 826.265,825.967L711.38,879.74C711.38,879.74 714.231,899.664 701.469,909.815C688.707,919.965 678.105,924.855 662.858,920.165C647.61,915.475 572.402,877.48 572.402,877.48C572.402,877.48 564.795,874.633 567.485,868.975C570.176,863.316 576.742,868.975 576.742,868.975L662.858,909.815C668.133,912.163 689.434,916.593 697.964,899.387C706.494,882.181 698.831,870.14 683.525,861.359C668.219,852.578 594.291,816.385 588.565,813.608C582.839,810.831 534.247,813.516 516.921,813.608C499.594,813.699 484.062,812.327 466.124,829.358Z"/>
    <path class="LogoLine" d="M850.273,479.075C846.3,522.727 713.566,618.051 713.566,618.051C713.566,618.051 709.706,608.059 703.789,600.713C697.021,592.31 686.894,589.266 686.894,589.266C686.894,589.266 721.054,572.671 719.739,533.728C718.425,494.786 686.6,478.826 660.878,479.075C635.156,479.324 603.634,505.663 603.634,533.728C603.634,561.794 621.409,580.561 629.665,584.813C640.049,590.162 652.943,592.695 655.934,602.802C659.751,615.7 652.703,629.231 643.425,632.431C633.59,635.823 583.623,613.331 568.268,576.257C553.742,541.188 563.101,495.846 579.612,475.682C597.449,453.897 647.118,434.238 663.076,435.405C678.428,436.528 673.693,431.104 654.934,428.937C642.869,427.543 632.804,429.601 624.56,433.263C609.22,440.078 601.961,444.951 596.337,446.581C590.712,448.21 512.551,476.657 501.198,479.075C489.846,481.493 481.644,475.908 476.166,464.682C470.688,453.456 479.164,439.661 494.23,435.405C504.705,432.446 660.878,382.457 660.878,382.457C660.878,382.457 760.355,381.477 779.423,382.457C790.463,383.025 822.312,394.891 838.696,416.758C850.613,432.663 852.835,450.936 850.273,479.075Z"/>
    <path class="LogoLine" d="M660.878,592.812C660.549,593.034 670.309,619.235 655.828,635.528C641.347,651.822 611.004,635.528 611.004,635.528C611.004,635.528 606.215,658.154 620.701,672.139C635.187,686.124 642.64,688.987 642.64,688.987L642.64,782.58L647.508,788.061L647.508,676.5C647.508,676.5 647.17,672.539 651.643,672.539C656.115,672.539 655.828,676.5 655.828,676.5L655.828,800.344L670.958,784.457L665.298,775.443L670.958,765.573L665.298,754.095L670.958,745.49L670.958,713.938L680.358,713.938L680.358,706.326C680.358,706.326 674.893,695.845 674.613,691.27C674.334,686.696 708.236,679.277 708.236,640.951C708.236,602.625 666.943,588.712 660.878,592.812Z"/>
    <path class="LogoLine" d="M629.665,382.457C629.665,382.457 533.393,382.539 516.89,382.457C500.387,382.375 495.323,402.074 495.487,406.791C495.65,411.507 502.438,422.319 506.63,421.38C510.823,420.442 629.665,382.457 629.665,382.457Z"/>
    <path class="LogoLine" d="M629.665,372.087L586.799,359.466C586.799,359.466 570.465,354.411 562.574,352.889C554.683,351.367 547.033,353.347 539.394,360.708C535.752,364.217 536.238,372.087 536.238,372.087L629.665,372.087Z"/>
    <g transform="matrix(-34.5206,-9.63386,-9.63386,34.5206,306.088,1029.7)">
        <path class="LogoCircle" d="M-9.84,-25.147C-14.015,-23.978 -17.496,-20.72 -18.746,-16.239C-20.65,-9.416 -16.662,-2.342 -9.84,-0.438C-3.017,1.466 4.057,-2.521 5.961,-9.343C7.211,-13.825 5.921,-18.415 2.954,-21.577" style="fill:none;fill-rule:nonzero;stroke-width:1.4px;"/>
    </g>
</svg>
