<?xml version="1.0" encoding="UTF-8" standalone="no"?>
<!DOCTYPE svg PUBLIC "-//W3C//DTD SVG 1.1//EN" "http://www.w3.org/Graphics/SVG/1.1/DTD/svg11.dtd">
<svg width="100%" height="100%" viewBox="0 0 624 624" version="1.1" xmlns="http://www.w3.org/2000/svg" xmlnsXlink="http://www.w3.org/1999/xlink" xmlSpace="preserve" style="fill-rule:evenodd;clip-rule:evenodd;stroke-linejoin:round;stroke-miterlimit:2;">
    <g transform="matrix(1,0,0,1,-8417,-1804)">
        <g id="Artboard1" transform="matrix(1,0,0,1,-0.832522,-0.547083)">
            <g transform="matrix(19.7247,0,0,19.7247,8729.63,1825.88)">
                <path class="LogoLine" d="M0,16.156C-0.542,16.156 -0.979,15.79 -0.979,15.339L-0.979,0.817C-0.979,0.365 -0.542,0 0,0C0.541,0 0.979,0.365 0.979,0.817L0.979,15.339C0.979,15.79 0.541,16.156 0,16.156"/>
            </g>
            <g transform="matrix(0.82477,0,0,0.82477,1530.38,371.768)">
                <path class="LogoCircle" d="M8881.92,1870.63C8963.53,1921.75 9017.87,2012.48 9017.87,2115.8C9017.87,2275.34 8888.34,2404.87 8728.8,2404.87C8569.26,2404.87 8439.73,2275.34 8439.73,2115.8C8439.73,2012.48 8494.07,1921.75 8575.68,1870.63C8586.32,1863.97 8589.54,1849.93 8582.88,1839.29C8576.22,1828.66 8562.18,1825.43 8551.55,1832.1C8457.11,1891.25 8394.27,1996.25 8394.27,2115.8C8394.27,2300.44 8544.17,2450.34 8728.8,2450.34C8913.44,2450.34 9063.34,2300.44 9063.34,2115.8C9063.34,1996.25 9000.49,1891.25 8906.05,1832.1C8895.42,1825.43 8881.38,1828.66 8874.72,1839.29C8868.06,1849.93 8871.28,1863.97 8881.92,1870.63Z"/>
            </g>
        </g>
    </g>
</svg>
